<svg width="60" height="60" viewBox="0 0 60 60" fill="none" xmlns="http://www.w3.org/2000/svg">
<g clip-path="url(#clip0_20502_44003)">
<path d="M44 0H16C7.16344 0 0 7.16344 0 16V44C0 52.8366 7.16344 60 16 60H44C52.8366 60 60 52.8366 60 44V16C60 7.16344 52.8366 0 44 0Z" fill="url(#paint0_linear_20502_44003)"/>
<path fill-rule="evenodd" clip-rule="evenodd" d="M30.0001 10C37.7322 10 44 16.1032 44 23.6323C44 27.8584 42.0243 31.6347 38.9251 34.1356C37.8247 35.0229 36.5956 35.4545 35.167 35.4545H24.833C23.4044 35.4545 22.1753 35.0229 21.0749 34.1356C17.976 31.6349 16 27.8586 16 23.6323C16 16.1032 22.268 10 30.0001 10Z" fill="url(#paint1_linear_20502_44003)"/>
<path fill-rule="evenodd" clip-rule="evenodd" d="M29.9999 50C32.5542 50 34.6828 48.0528 35.1545 45.4726C35.2464 44.9702 34.844 44.5455 34.3518 44.5455H25.6482C25.156 44.5455 24.7536 44.9702 24.8455 45.4726C25.3171 48.0528 27.4453 50 29.9999 50Z" fill="url(#paint2_linear_20502_44003)"/>
<path d="M23 40C23 38.4938 24.1753 37.2727 25.625 37.2727H34.375C35.8247 37.2727 37 38.4938 37 40C37 41.5062 35.8247 42.7273 34.375 42.7273H25.625C24.1753 42.7273 23 41.5062 23 40Z" fill="url(#paint3_linear_20502_44003)"/>
<path d="M25.5451 23.1686L29.4247 16.4507C29.8813 15.6601 31.05 15.9964 31.05 16.9185V20C31.05 20.5021 31.4418 20.9091 31.925 20.9091H33.7046C34.3847 20.9091 34.8048 21.68 34.4549 22.2859L30.5753 29.0038C30.1187 29.7944 28.95 29.4581 28.95 28.5361V25.4545C28.95 24.9525 28.5583 24.5455 28.075 24.5455H26.2954C25.6153 24.5455 25.1952 23.7746 25.5451 23.1686Z" fill="url(#paint4_linear_20502_44003)"/>
</g>
<defs>
<linearGradient id="paint0_linear_20502_44003" x1="30" y1="0" x2="30" y2="60" gradientUnits="userSpaceOnUse">
<stop stop-color="#FFC30F"/>
<stop offset="1" stop-color="#F97A21"/>
</linearGradient>
<linearGradient id="paint1_linear_20502_44003" x1="30" y1="10" x2="30" y2="50" gradientUnits="userSpaceOnUse">
<stop stop-color="#FCFCFB"/>
<stop offset="1" stop-color="#FCFCFB" stop-opacity="0.7"/>
</linearGradient>
<linearGradient id="paint2_linear_20502_44003" x1="30" y1="10" x2="30" y2="50" gradientUnits="userSpaceOnUse">
<stop stop-color="#FCFCFB"/>
<stop offset="1" stop-color="#FCFCFB" stop-opacity="0.7"/>
</linearGradient>
<linearGradient id="paint3_linear_20502_44003" x1="30" y1="10" x2="30" y2="50" gradientUnits="userSpaceOnUse">
<stop stop-color="#FCFCFB"/>
<stop offset="1" stop-color="#FCFCFB" stop-opacity="0.7"/>
</linearGradient>
<linearGradient id="paint4_linear_20502_44003" x1="30" y1="10" x2="30" y2="50" gradientUnits="userSpaceOnUse">
<stop stop-color="#FFA800"/>
<stop offset="1" stop-color="#F97A21"/>
</linearGradient>
<clipPath id="clip0_20502_44003">
<rect width="60" height="60" fill="white"/>
</clipPath>
</defs>
</svg>
