<svg width="22" height="22" viewBox="0 0 22 22" fill="none" xmlns="http://www.w3.org/2000/svg">
<g clip-path="url(#clip0_24198_4456)">
<path d="M11 0C17.0751 0 22 4.92487 22 11C22 17.0751 17.0751 22 11 22C4.92487 22 0 17.0751 0 11C0 4.92487 4.92487 0 11 0ZM11 1.57129C5.79274 1.57129 1.57129 5.79274 1.57129 11C1.57129 16.2073 5.79274 20.4287 11 20.4287C16.2073 20.4287 20.4287 16.2073 20.4287 11C20.4287 5.79274 16.2073 1.57129 11 1.57129Z" fill="url(#paint0_linear_24198_4456)"/>
<mask id="mask0_24198_4456" style="mask-type:alpha" maskUnits="userSpaceOnUse" x="1" y="1" width="20" height="20">
<circle cx="10.9999" cy="11.0008" r="9.42857" fill="#FCFCFB"/>
</mask>
<g mask="url(#mask0_24198_4456)">
<path d="M10.9995 14.1445C14.9049 14.1445 18.0707 17.3104 18.0708 21.2158C18.0708 25.1213 14.905 28.2871 10.9995 28.2871C7.09413 28.287 3.92822 25.1212 3.92822 21.2158C3.9283 17.3105 7.09418 14.1446 10.9995 14.1445Z" fill="url(#paint1_linear_24198_4456)"/>
<ellipse cx="10.9999" cy="8.25112" rx="3.92857" ry="4.32143" fill="url(#paint2_linear_24198_4456)"/>
</g>
</g>
<defs>
<linearGradient id="paint0_linear_24198_4456" x1="11" y1="0" x2="11" y2="22" gradientUnits="userSpaceOnUse">
<stop stop-color="#FCFCFB"/>
<stop offset="1" stop-color="#FCFCFB" stop-opacity="0.7"/>
</linearGradient>
<linearGradient id="paint1_linear_24198_4456" x1="10.9995" y1="14.1445" x2="10.9995" y2="28.287" gradientUnits="userSpaceOnUse">
<stop stop-color="#FCFCFB"/>
<stop offset="1" stop-color="#FCFCFB" stop-opacity="0.7"/>
</linearGradient>
<linearGradient id="paint2_linear_24198_4456" x1="10.9999" y1="3.92969" x2="10.9999" y2="12.5725" gradientUnits="userSpaceOnUse">
<stop stop-color="#FCFCFB"/>
<stop offset="1" stop-color="#FCFCFB" stop-opacity="0.7"/>
</linearGradient>
<clipPath id="clip0_24198_4456">
<rect width="22" height="22" rx="11" fill="white"/>
</clipPath>
</defs>
</svg>
