<svg width="20" height="20" viewBox="0 0 20 20" fill="none" xmlns="http://www.w3.org/2000/svg">
<path fill-rule="evenodd" clip-rule="evenodd" d="M4.29289 11.0246C4.65338 10.6497 5.22061 10.6209 5.6129 10.9381L5.70711 11.0246L10 15.4892L14.2929 11.0246C14.6834 10.6185 15.3166 10.6185 15.7071 11.0246C16.0676 11.3995 16.0953 11.9894 15.7903 12.3974L15.7071 12.4954L10.7071 17.6954C10.3466 18.0703 9.77939 18.0991 9.3871 17.7819L9.29289 17.6954L4.29289 12.4954C3.90237 12.0892 3.90237 11.4308 4.29289 11.0246ZM10.7071 2.30461L15.7071 7.50461C16.0976 7.91075 16.0976 8.56925 15.7071 8.97539C15.3166 9.38154 14.6834 9.38154 14.2929 8.97539L10 4.51078L5.70711 8.97539C5.31658 9.38154 4.68342 9.38154 4.29289 8.97539C3.90237 8.56925 3.90237 7.91075 4.29289 7.50461L9.29289 2.30461C9.68342 1.89846 10.3166 1.89846 10.7071 2.30461Z" fill="#B3B3B7"/>
</svg>
