<svg width="30" height="30" viewBox="0 0 30 30" fill="none" xmlns="http://www.w3.org/2000/svg">
<g clip-path="url(#clip0_19446_38170)">
<path d="M22 0H8C3.58172 0 0 3.58172 0 8V22C0 26.4183 3.58172 30 8 30H22C26.4183 30 30 26.4183 30 22V8C30 3.58172 26.4183 0 22 0Z" fill="url(#paint0_linear_19446_38170)"/>
<path d="M15 6.64355C17.5896 6.6436 19.9495 7.62111 21.7256 9.22461L22.2632 8.69141C22.6971 8.26086 23.4006 8.26086 23.8345 8.69141C24.2685 9.12216 24.2685 9.82072 23.8345 10.2515L23.1963 10.8838C24.3326 12.4948 25 14.4562 25 16.5723C24.9998 22.0554 20.5227 26.5 15 26.5C9.4773 26.5 5.00016 22.0555 5 16.5723C5.00005 11.089 9.47725 6.64355 15 6.64355Z" fill="url(#paint1_linear_19446_38170)"/>
<path d="M17.2256 3.5C17.8391 3.5 18.3368 3.99393 18.3369 4.60303C18.3368 5.21215 17.8392 5.70605 17.2256 5.70605H12.7808C12.1672 5.70605 11.6695 5.21215 11.6694 4.60303C11.6695 3.99393 12.1672 3.5 12.7808 3.5H17.2256Z" fill="url(#paint2_linear_19446_38170)"/>
<path fill-rule="evenodd" clip-rule="evenodd" d="M18.2143 12.1035C18.4904 12.1036 18.7143 12.3258 18.7143 12.5999V14.7506H19.5C19.776 14.7506 19.9999 14.9729 20 15.247C20 15.5211 19.7761 15.7433 19.5 15.7433H18.7143V17.3981H19.5C19.7761 17.3981 20 17.6204 20 17.8945C19.9999 18.1686 19.776 18.3909 19.5 18.3909H18.7143V19.845L18.7104 19.942C18.6924 20.1673 18.6115 20.385 18.4741 20.5677C18.3169 20.7768 18.094 20.9295 17.8384 20.9977C17.5825 21.0659 17.3116 21.0443 17.0698 20.9376C16.8284 20.8309 16.6321 20.6465 16.5083 20.417L15.415 18.3909H12.2857V20.5416C12.2857 20.8157 12.0618 21.0379 11.7857 21.0379C11.5095 21.0379 11.2857 20.8157 11.2857 20.5416V18.3909H10.5C10.2239 18.3909 10 18.1686 10 17.8945C10 17.6204 10.2239 17.3981 10.5 17.3981H11.2857V15.7433H10.5C10.2239 15.7433 10 15.5211 10 15.247C10 14.9729 10.2239 14.7506 10.5 14.7506H11.2857V13.296C11.2856 13.0366 11.369 12.7824 11.5259 12.5737C11.683 12.3646 11.906 12.212 12.1616 12.1438C12.4175 12.0755 12.6883 12.0971 12.9302 12.2039C13.1714 12.3104 13.3674 12.4947 13.4912 12.724L14.585 14.7506H17.7143V12.5999C17.7143 12.3258 17.9382 12.1035 18.2143 12.1035ZM17.3897 19.9483L17.3901 19.9487C17.4116 19.9884 17.4431 20.0159 17.4765 20.0307C17.5095 20.0452 17.545 20.0478 17.5786 20.0389C17.6125 20.0298 17.6465 20.0084 17.6723 19.974C17.6985 19.9392 17.7143 19.894 17.7143 19.8455V18.3909H16.5493L17.3897 19.9483ZM12.2857 17.3981H14.8794L13.9863 15.7433H12.2857V17.3981ZM16.0137 17.3981H17.7143V15.7433H15.1206L16.0137 17.3981ZM12.5234 13.1108C12.4904 13.0962 12.4549 13.0936 12.4213 13.1025C12.3874 13.1116 12.3535 13.133 12.3276 13.1675C12.3015 13.2023 12.2856 13.2474 12.2857 13.296V14.7506H13.4507L12.6103 13.1932L12.6098 13.1927C12.5884 13.1531 12.5569 13.1256 12.5234 13.1108Z" fill="url(#paint3_linear_19446_38170)"/>
</g>
<defs>
<linearGradient id="paint0_linear_19446_38170" x1="15" y1="0" x2="15" y2="30" gradientUnits="userSpaceOnUse">
<stop stop-color="#FFA800"/>
<stop offset="1" stop-color="#F97A21"/>
</linearGradient>
<linearGradient id="paint1_linear_19446_38170" x1="15" y1="3.5" x2="15" y2="26.5" gradientUnits="userSpaceOnUse">
<stop stop-color="#FCFCFB"/>
<stop offset="1" stop-color="#FCFCFB" stop-opacity="0.7"/>
</linearGradient>
<linearGradient id="paint2_linear_19446_38170" x1="15" y1="3.5" x2="15" y2="26.5" gradientUnits="userSpaceOnUse">
<stop stop-color="#FCFCFB"/>
<stop offset="1" stop-color="#FCFCFB" stop-opacity="0.7"/>
</linearGradient>
<linearGradient id="paint3_linear_19446_38170" x1="15" y1="12.1035" x2="15" y2="21.0379" gradientUnits="userSpaceOnUse">
<stop stop-color="#FFA800"/>
<stop offset="1" stop-color="#F97A21"/>
</linearGradient>
<clipPath id="clip0_19446_38170">
<rect width="30" height="30" fill="white"/>
</clipPath>
</defs>
</svg>
