<svg width="60" height="60" viewBox="0 0 60 60" fill="none" xmlns="http://www.w3.org/2000/svg">
<g clip-path="url(#clip0_19629_37566)">
<path d="M44 0H16C7.16344 0 0 7.16344 0 16V44C0 52.8366 7.16344 60 16 60H44C52.8366 60 60 52.8366 60 44V16C60 7.16344 52.8366 0 44 0Z" fill="url(#paint0_linear_19629_37566)"/>
<path d="M12.4053 12.4053C12.946 11.8648 13.8226 11.865 14.3633 12.4053L47.5948 45.6368C48.1352 46.1775 48.1353 47.0541 47.5948 47.5948C47.054 48.1354 46.1775 48.1353 45.6367 47.5948L31.3848 33.3428V43.293C31.3846 44.0575 30.7646 44.6768 30 44.6768C29.2355 44.6768 28.6155 44.0575 28.6153 43.293V30.5733L21.585 23.543C21.4736 24.0212 21.4151 24.5136 21.4151 25.0157C21.4151 26.5161 21.9317 27.9355 22.8623 29.1641C23.324 29.7737 23.2042 30.6419 22.5948 31.1036C21.9852 31.5652 21.1171 31.4455 20.6553 30.836C19.3963 29.1737 18.6465 27.177 18.6465 25.0157C18.6465 23.7285 18.9157 22.4967 19.3994 21.3575L16.6026 18.5606C15.4298 20.4864 14.7696 22.6848 14.7696 25.0157C14.7697 27.7717 15.6916 30.3435 17.294 32.4971C17.75 33.1105 17.623 33.9782 17.0098 34.4346C16.3963 34.891 15.5288 34.7628 15.0723 34.1495C13.1391 31.5511 12 28.4072 12 25.0157C12 21.9122 12.9555 19.0172 14.5987 16.5567L12.4053 14.3633C11.865 13.8226 11.8648 12.946 12.4053 12.4053Z" fill="url(#paint1_linear_19629_37566)"/>
<path d="M42.9912 15.5967C43.6047 15.1407 44.4714 15.2686 44.9278 15.8819C46.861 18.4802 48 21.6241 48 25.0157C48 28.4073 46.8611 31.5521 44.9278 34.1505C44.4713 34.7633 43.6046 34.8907 42.9912 34.4346C42.3781 33.9781 42.25 33.1105 42.7061 32.4971C44.3085 30.3434 45.2314 27.7717 45.2315 25.0157C45.2314 22.2597 44.3084 19.6878 42.7061 17.5342C42.2502 16.9208 42.3781 16.0531 42.9912 15.5967Z" fill="url(#paint2_linear_19629_37566)"/>
<path d="M37.4024 18.9268C38.0116 18.465 38.8807 18.5844 39.3428 19.1934C40.6041 20.8561 41.3535 22.8542 41.3535 25.0157C41.3535 27.177 40.6041 29.1744 39.3428 30.837C38.8807 31.4459 38.0115 31.5655 37.4024 31.1036C36.7934 30.6415 36.6741 29.7722 37.1358 29.1632C38.0675 27.9349 38.5849 26.516 38.585 25.0157C38.585 23.5152 38.0676 22.0965 37.1358 20.8682C36.6737 20.259 36.7933 19.3891 37.4024 18.9268Z" fill="url(#paint3_linear_19629_37566)"/>
<path d="M30.2676 20.3155C30.8936 20.3511 31.5076 20.5115 32.0723 20.7882C32.7172 21.1043 33.2807 21.5642 33.7207 22.1319C34.1606 22.6997 34.4663 23.3616 34.6114 24.0655C34.7562 24.7688 34.7392 25.4968 34.5596 26.1925C34.3684 26.9327 33.6124 27.3775 32.8721 27.1866C32.1319 26.9953 31.6869 26.2404 31.878 25.5001C31.9518 25.2139 31.9591 24.9139 31.8994 24.6241C31.8398 24.3346 31.7134 24.0631 31.5323 23.8292C31.3513 23.5956 31.1188 23.4056 30.8535 23.2755C30.5885 23.1456 30.297 23.0774 30.002 23.0772C29.8246 23.0781 29.6629 23.0995 29.5147 23.1378C28.7745 23.3286 28.0194 22.8837 27.8282 22.1436C27.6369 21.4034 28.0822 20.6476 28.8223 20.4561C29.2047 20.3574 29.5969 20.3093 29.9942 20.3077H30L30.2676 20.3155Z" fill="url(#paint4_linear_19629_37566)"/>
</g>
<defs>
<linearGradient id="paint0_linear_19629_37566" x1="30" y1="0" x2="30" y2="60" gradientUnits="userSpaceOnUse">
<stop stop-color="#00FD83"/>
<stop offset="1" stop-color="#00A95D"/>
</linearGradient>
<linearGradient id="paint1_linear_19629_37566" x1="30.0001" y1="12" x2="30.0001" y2="48.0002" gradientUnits="userSpaceOnUse">
<stop stop-color="#FCFCFB"/>
<stop offset="1" stop-color="#FCFCFB" stop-opacity="0.7"/>
</linearGradient>
<linearGradient id="paint2_linear_19629_37566" x1="30.0001" y1="12" x2="30.0001" y2="48.0002" gradientUnits="userSpaceOnUse">
<stop stop-color="#FCFCFB"/>
<stop offset="1" stop-color="#FCFCFB" stop-opacity="0.7"/>
</linearGradient>
<linearGradient id="paint3_linear_19629_37566" x1="30.0001" y1="12" x2="30.0001" y2="48.0002" gradientUnits="userSpaceOnUse">
<stop stop-color="#FCFCFB"/>
<stop offset="1" stop-color="#FCFCFB" stop-opacity="0.7"/>
</linearGradient>
<linearGradient id="paint4_linear_19629_37566" x1="30.0001" y1="12" x2="30.0001" y2="48.0002" gradientUnits="userSpaceOnUse">
<stop stop-color="#FCFCFB"/>
<stop offset="1" stop-color="#FCFCFB" stop-opacity="0.7"/>
</linearGradient>
<clipPath id="clip0_19629_37566">
<rect width="60" height="60" fill="white"/>
</clipPath>
</defs>
</svg>
