<svg width="20" height="20" viewBox="0 0 20 20" fill="none" xmlns="http://www.w3.org/2000/svg">
<path fill-rule="evenodd" clip-rule="evenodd" d="M1.19229 11.2671C1.07422 9.97081 1.28616 8.37182 1.44112 7.0975C1.60641 5.73752 1.94467 5.03785 2.92345 4.08934C3.71214 3.32486 4.55573 2.73689 5.60062 2.2826C7.19718 1.58843 9.4254 1.05428 11.2681 1.15758C11.6492 1.17899 11.867 1.27158 12.2183 1.339C12.5353 1.39977 12.8871 1.41568 13.1953 1.48397C14.0619 1.67582 15.4356 2.59047 16.0926 3.10726C16.8512 3.70392 17.5587 4.7647 17.9802 5.6646C19.0721 7.9974 18.9304 10.1977 18.8203 12.8218C18.7875 13.6008 18.3504 14.654 17.9729 15.3135C17.7893 15.6344 17.6845 15.7435 17.4548 15.9411C16.8557 16.4559 16.2945 17.0511 15.5339 17.3833C12.3939 18.7551 10.9854 19.3853 7.59448 18.3506C6.04839 17.8786 4.30779 17.0195 3.2623 15.9229C3.08254 15.7345 2.88744 15.554 2.71978 15.3459C1.72655 14.1124 1.35109 13.0105 1.19229 11.2674V11.2671ZM15.582 18.6153C15.8583 18.4912 16.185 18.3723 16.4486 18.2259C18.9531 16.8358 19.9989 14.591 19.9983 11.8181C19.9977 8.71269 20.1105 6.92099 18.5968 4.2673C18.3764 3.88072 17.8023 3.15096 17.5115 2.85118C16.8654 2.18508 16.2084 1.70388 15.3937 1.23339C14.218 0.554848 13.9657 0.447207 12.612 0.241185C12.2345 0.183892 11.9411 0.0678602 11.5606 0.0308226C11.1784 -0.00621512 10.733 -0.00708319 10.341 0.0134611C7.3607 0.168846 4.63867 1.17668 2.86914 2.5844C2.10288 3.19378 1.09872 4.18454 0.639148 5.33213C0.271369 6.25055 0.075673 8.61517 0.0201815 9.68377C-0.0893256 11.7912 0.226504 13.9775 1.46916 15.6228C1.55948 15.7423 1.64154 15.8476 1.7357 15.9686L2.02909 16.3138C2.23571 16.5618 2.43318 16.7313 2.65396 16.9411C3.44265 17.6908 4.48518 18.3483 5.70599 18.8818C6.29928 19.1411 6.91441 19.3434 7.56319 19.5404C10.5836 20.458 12.6657 19.9258 15.582 18.6151V18.6153Z" fill="#FCFCFB"/>
<path fill-rule="evenodd" clip-rule="evenodd" d="M13.3637 6.5112C12.0192 6.71142 12.3458 8.677 13.6448 8.4871C14.1365 8.41511 14.5737 7.95661 14.4896 7.36395C14.4173 6.85514 13.9541 6.42347 13.364 6.51146L13.3637 6.5112Z" fill="#FCFCFB"/>
<path fill-rule="evenodd" clip-rule="evenodd" d="M6.79675 6.52361C5.48587 6.80548 5.91189 8.73937 7.2083 8.4753C7.68524 8.37807 8.10066 7.88267 7.97838 7.29392C7.87834 6.81218 7.39623 6.39492 6.79675 6.52361Z" fill="#FCFCFB"/>
<path fill-rule="evenodd" clip-rule="evenodd" d="M13.7635 12.52C13.3684 12.6221 13.3321 12.9859 12.8962 13.3511C12.534 13.6547 12.3572 13.8205 11.8526 14.0318C10.9127 14.4258 9.87665 14.3706 8.8654 14.127C6.95626 13.6671 6.74646 12.6301 6.18082 12.5494C5.90178 12.5096 5.69772 12.6402 5.5913 12.8102C5.28808 13.295 5.82015 13.7256 6.02543 13.9143C7.3523 15.1359 9.42952 15.727 11.2821 15.4199C12.2634 15.2573 13.0471 14.7917 13.6048 14.3166C13.8437 14.1131 14.2373 13.6935 14.4099 13.4013C14.6908 12.9253 14.2702 12.3891 13.7639 12.52H13.7635Z" fill="#FCFCFB"/>
</svg>
