<svg width="20" height="26" viewBox="0 0 20 26" fill="none" xmlns="http://www.w3.org/2000/svg">
<g clip-path="url(#clip0_23076_557)">
<path d="M16 0.5H4C2.067 0.5 0.5 2.067 0.5 4V22C0.5 23.933 2.067 25.5 4 25.5H16C17.933 25.5 19.5 23.933 19.5 22V4C19.5 2.067 17.933 0.5 16 0.5Z" stroke="url(#paint0_linear_23076_557)"/>
<path d="M13 6H12C11.4477 6 11 6.44772 11 7C11 7.55228 11.4477 8 12 8H13C13.5523 8 14 7.55228 14 7C14 6.44772 13.5523 6 13 6Z" fill="url(#paint1_linear_23076_557)"/>
<path d="M9 6H8C7.44772 6 7 6.44772 7 7C7 7.55228 7.44772 8 8 8H9C9.55228 8 10 7.55228 10 7C10 6.44772 9.55228 6 9 6Z" fill="url(#paint2_linear_23076_557)"/>
<path d="M5 6H4C3.44772 6 3 6.44772 3 7C3 7.55228 3.44772 8 4 8H5C5.55228 8 6 7.55228 6 7C6 6.44772 5.55228 6 5 6Z" fill="url(#paint3_linear_23076_557)"/>
<path d="M16 9H4C3.44772 9 3 9.44772 3 10V22C3 22.5523 3.44772 23 4 23H16C16.5523 23 17 22.5523 17 22V10C17 9.44772 16.5523 9 16 9Z" fill="url(#paint4_linear_23076_557)"/>
</g>
<defs>
<linearGradient id="paint0_linear_23076_557" x1="9.68333" y1="0.5" x2="9.40922" y2="30.0823" gradientUnits="userSpaceOnUse">
<stop stop-color="#FF7088"/>
<stop offset="1" stop-color="#F41E42"/>
</linearGradient>
<linearGradient id="paint1_linear_23076_557" x1="12.5" y1="8" x2="12.5" y2="6" gradientUnits="userSpaceOnUse">
<stop stop-color="#07B826"/>
<stop offset="1" stop-color="#4EE659"/>
</linearGradient>
<linearGradient id="paint2_linear_23076_557" x1="8.5" y1="6" x2="8.5" y2="8" gradientUnits="userSpaceOnUse">
<stop stop-color="#FFA800"/>
<stop offset="1" stop-color="#F97A21"/>
</linearGradient>
<linearGradient id="paint3_linear_23076_557" x1="4.45" y1="6" x2="4.43889" y2="8.36673" gradientUnits="userSpaceOnUse">
<stop stop-color="#FF7088"/>
<stop offset="1" stop-color="#F41E42"/>
</linearGradient>
<linearGradient id="paint4_linear_23076_557" x1="9.76667" y1="9" x2="9.65" y2="25.5667" gradientUnits="userSpaceOnUse">
<stop stop-color="#FF7088"/>
<stop offset="1" stop-color="#F41E42"/>
</linearGradient>
<clipPath id="clip0_23076_557">
<rect width="20" height="26" fill="white"/>
</clipPath>
</defs>
</svg>
